#!OML:ASF E:\acrobat2\Project_11_07_03\Capture day 1\Session 1\Acrobat.ASF
:FULLY-SPECIFIED
:DEGREES
245
root 8.36373 18.1689 4.33751 14.2868 3.57441 -0.0069109
lowerback 8.7595 -0.296132 1.63002
upperback 1.56983 -0.255704 -0.41814
thorax -3.2921 -0.144572 -1.32048
lowerneck 5.38605 -3.32577 -2.16342
upperneck -10.2588 -4.31938 3.63845
head -4.20563 -2.23199 1.83604
rclavicle -1.67725e-015 4.96962e-016
rhumerus -18.7801 51.6321 -79.4516
rradius 61.6093
rwrist 7.0478
rhand -6.52921 -28.822
rfingers 7.12502
rthumb 19.3236 -57.8819
lclavicle -1.67725e-015 4.96962e-016
lhumerus 10.0527 -43.7202 67.268
lradius 49.9583
lwrist 14.2238
lhand -10.018 -18.6367
lfingers 7.12502
lthumb 15.9663 10.7253
rfemur -29.2431 -5.01217 19.0533
rtibia 31.2337
rfoot -26.7157 -12.2941
rtoes -6.41214
lfemur -30.4305 5.67232 -17.1703
ltibia 28.7484
lfoot -7.82729 -9.17031
ltoes 29.9119
246
root 8.35358 18.0916 4.26022 14.8577 3.04111 -0.075676
lowerback 9.37335 -0.051264 1.49438
upperback 1.8041 0.0651893 -0.398213
thorax -3.37897 0.0167463 -1.26152
lowerneck 5.13981 -3.25581 -2.14926
upperneck -10.9151 -4.22448 3.51895
head -4.39899 -2.17856 1.79931
rclavicle -3.23025e-015 -1.21756e-015
rhumerus -16.8633 52.8558 -77.5423
rradius 63.0503
rwrist 7.40961
rhand -6.70934 -28.5551
rfingers 7.12502
rthumb 19.1503 -57.6323
lclavicle -3.23025e-015 -1.21756e-015
lhumerus 12.6791 -44.2814 65.0667
lradius 51.6394
lwrist 14.294
lhand -10.2947 -18.8825
lfingers 7.12502
lthumb 15.6998 10.5006
rfemur -31.7143 -4.83341 19.3174
rtibia 33.5523
rfoot -26.1794 -11.1634
rtoes -9.26404
lfemur -32.5902 6.38087 -17.3221
ltibia 31.0625
lfoot -8.12388 -9.74247
ltoes 31.6266
247
root 8.34359 18.0022 4.17826 15.415 3.37221 0.085989
lowerback 10.1111 -0.135378 1.50713
upperback 1.97026 -0.0344723 -0.407179
thorax -3.61865 -0.0334686 -1.26698
lowerneck 4.86448 -3.26172 -1.93218
upperneck -11.4651 -4.23079 3.26507
head -4.55254 -2.17679 1.68139
rclavicle -1.73005e-015 -2.18042e-015
rhumerus -14.9393 54.0557 -75.6179
rradius 64.5018
rwrist 7.75642
rhand -6.76202 -28.2437
rfingers 7.12502
rthumb 19.0997 -57.3259
lclavicle -1.73005e-015 -2.18042e-015
lhumerus 15.438 -44.9127 62.5986
lradius 53.3568
lwrist 14.3729
lhand -10.5953 -19.0244
lfingers 7.12502
lthumb 15.4104 10.3812
rfemur -33.9312 -5.2039 19.3283
rtibia 35.6479
rfoot -25.9323 -9.94989
rtoes -9.96242
lfemur -34.9383 6.2472 -17.6476
ltibia 33.4997
lfoot -8.19908 -10.404
ltoes 33.1202
248
root 8.33839 17.9032 4.10225 15.8618 3.49783 0.0629286
lowerback 10.8693 -0.179805 1.65635
upperback 2.13922 -0.0647018 -0.395204
thorax -3.86331 -0.050762 -1.3356
lowerneck 4.87486 -3.22985 -1.73661
upperneck -12.602 -4.15146 3.27328
head -4.46237 -2.16081 1.50571
rclavicle 3.59831e-015 -5.34234e-016
rhumerus -12.7428 55.49 -73.3933
rradius 65.9914
rwrist 7.84773
rhand -7.059 -27.954
rfingers 7.12502
rthumb 18.8141 -57.0642
lclavicle 3.59831e-015 -5.34234e-016
lhumerus 18.0456 -45.3219 60.2519
lradius 55.0258
lwrist 13.8989
lhand -10.8383 -19.254
lfingers 7.12502
lthumb 15.1762 10.1695
rfemur -35.9706 -5.24002 19.4619
rtibia 37.5795
rfoot -25.6453 -8.70466
rtoes -9.8669
lfemur -37.045 6.21921 -17.7452
ltibia 35.7727
lfoot -8.62967 -10.8534
ltoes 33.0976
249
root 8.33144 17.7884 4.02145 16.3707 3.4914 0.0282622
lowerback 11.5278 -0.203854 1.69702
upperback 2.32141 -0.0800489 -0.371495
thorax -4.03731 -0.0588159 -1.33238
lowerneck 5.11524 -3.11895 -1.6007
upperneck -13.6011 -3.98927 3.19345
head -4.81808 -2.08552 1.47225
rclavicle 6.77421e-015 -3.11843e-015
rhumerus -10.1249 57.0325 -70.7412
rradius 67.553
rwrist 7.79953
rhand -8.05847 -27.5143
rfingers 7.12502
rthumb 17.8526 -56.7149
lclavicle 6.77421e-015 -3.11843e-015
lhumerus 20.8171 -45.5224 57.7461
lradius 56.5989
lwrist 13.2275
lhand -11.0593 -19.6208
lfingers 7.12502
lthumb 14.9634 9.81863
rfemur -38.211 -5.17605 19.6557
rtibia 40.0247
rfoot -25.7961 -7.26958
rtoes -8.88701
lfemur -39.2864 6.30702 -17.8655
ltibia 38.1212
lfoot -9.34786 -11.148
ltoes 31.7409
250
root 8.31923 17.658 3.93953 16.894 3.63074 0.08826
lowerback 12.1556 -0.21624 1.69588
upperback 2.58097 -0.0867383 -0.376255
thorax -4.11185 -0.0606425 -1.33629
lowerneck 4.93577 -2.99342 -1.62162
upperneck -14.445 -3.79708 3.28239
head -5.04988 -1.99609 1.5031
rclavicle 1.00138e-014 -4.95719e-015
rhumerus -7.01747 58.2605 -67.6133
rradius 69.0659
rwrist 7.94487
rhand -8.77014 -27.1079
rfingers 7.12502
rthumb 17.1677 -56.3695
lclavicle 1.00138e-014 -4.95719e-015
lhumerus 24.3633 -45.9053 54.5116
lradius 58.2079
lwrist 12.9652
lhand -11.6662 -19.9525
lfingers 7.12502
lthumb 14.3787 9.52951
rfemur -40.4329 -5.1001 19.6988
rtibia 42.1633
rfoot -25.6603 -6.43481
rtoes -6.93462
lfemur -41.6912 6.33701 -18.0953
ltibia 40.6542
lfoot -9.88677 -11.5725
ltoes 31.2638
